<svg version="1.2" xmlns="http://www.w3.org/2000/svg" viewBox="0 0 1600 250" width="1600" height="250">
	<title>Proyecto nuevo</title>
	<style>
		.s0 { fill: #000000 } 
	</style>
	<path id="MovieGuesser" class="s0" aria-label="MovieGuesser"  d="m36.4 40.1v168.9h19.2v-128.3h1.6l52.8 128.3h18.5l52.7-128.3h1.7v128.3h19.1v-168.9h-24.4l-57.4 140.2h-2l-57.3-140.2zm255.2 171.5c34.3 0 57.4-26 57.4-65.3 0-39.5-23.1-65.6-57.4-65.6-34.3 0-57.3 26.1-57.3 65.6 0 39.3 23 65.3 57.3 65.3zm0-17.4c-26 0-37.9-22.5-37.9-47.9 0-25.4 11.9-48.1 37.9-48.1 26.1 0 38 22.7 38 48.1 0 25.4-11.9 47.9-38 47.9zm186.1-111.9h-21.1l-35 101h-1.3l-35-101h-21.1l46.8 126.7h19.8zm25.8 126.7h19.4v-126.7h-19.4zm9.8-147.8c7.6 0 13.9-5.9 13.9-13.2 0-7.2-6.3-13.1-13.9-13.1-7.5 0-13.8 5.9-13.8 13.1 0 7.3 6.3 13.2 13.8 13.2zm98.3 150.4c25.8 0 44.6-12.8 50.5-32l-18.8-5.2c-4.9 13.2-16.4 19.8-31.7 19.8-22.8 0-38.6-14.8-39.5-41.9h92v-8.3c0-47.1-28.1-63.3-54.4-63.3-34.3 0-57.1 27-57.1 66 0 38.9 22.4 64.9 59 64.9zm-39.5-76.2c1.4-19.7 15.3-37.2 37.6-37.2 21.1 0 34.6 15.8 34.6 37.2zm239.7-42.5h21.1c-6.3-32.7-33.6-55.1-69.3-55.1-43.3 0-73.8 33.3-73.8 86.8 0 53.4 30.3 86.7 75.2 86.7 40.2 0 68.9-26.8 68.9-68.6v-18.1h-64.3v18.1h44.5c-0.6 30.3-20.5 49.5-49.1 49.5-31.4 0-55.5-23.8-55.5-67.6 0-43.9 24.1-67.6 54.1-67.6 24.4 0 41 13.7 48.2 35.9zm134.2 64.3c0 23.8-18.1 34.6-32.6 34.6-16.2 0-27.7-11.8-27.7-30.3v-79.2h-19.5v80.5c0 32.3 17.2 47.8 40.9 47.8 19.1 0 31.7-10.2 37.6-23h1.3v21.4h19.5v-126.7h-19.5zm108.2 54.5c25.7 0 44.5-12.9 50.5-32l-18.8-5.3c-5 13.2-16.4 19.8-31.7 19.8-22.8 0-38.6-14.8-39.5-41.9h92v-8.2c0-47.2-28.1-63.4-54.5-63.4-34.3 0-57 27.1-57 66 0 38.9 22.4 65 59 65zm-39.5-76.2c1.3-19.7 15.3-37.3 37.5-37.3 21.1 0 34.7 15.8 34.7 37.3zm211.3-24.8c-6.1-17.9-19.8-30-44.9-30-26.7 0-46.5 15.2-46.5 36.6 0 17.5 10.4 29.2 33.7 34.7l21.1 4.9c12.8 3 18.8 9.1 18.8 17.8 0 10.9-11.6 19.8-29.7 19.8-15.9 0-25.9-6.8-29.3-20.4l-18.5 4.6c4.5 21.5 22.2 33 48.1 33 29.5 0 49.5-16.1 49.5-38 0-17.6-11-28.7-33.6-34.3l-18.8-4.6c-15-3.7-21.8-8.7-21.8-18.5 0-10.8 11.5-18.8 27-18.8 17 0 24 9.4 27.4 18.2zm121.4 0c-6.1-18-19.8-30-44.9-30-26.7 0-46.5 15.1-46.5 36.6 0 17.5 10.4 29.2 33.7 34.6l21.1 5c12.8 2.9 18.8 9 18.8 17.8 0 10.9-11.6 19.8-29.7 19.8-15.9 0-25.9-6.9-29.4-20.5l-18.4 4.6c4.5 21.6 22.2 33 48.1 33 29.5 0 49.5-16.1 49.5-37.9 0-17.7-11-28.8-33.6-34.3l-18.8-4.6c-15-3.7-21.8-8.8-21.8-18.5 0-10.9 11.5-18.8 27-18.8 17 0 24 9.4 27.4 18.1zm84.8 101c25.7 0 44.5-12.9 50.4-32l-18.8-5.3c-4.9 13.2-16.4 19.8-31.6 19.8-22.9 0-38.6-14.8-39.5-41.9h91.9v-8.3c0-47.1-28-63.3-54.4-63.3-34.3 0-57.1 27.1-57.1 66 0 38.9 22.5 65 59.1 65zm-39.5-76.2c1.3-19.7 15.2-37.3 37.5-37.3 21.1 0 34.6 15.8 34.6 37.3zm121.7 73.5h19.4v-80.1c0-17.2 13.5-29.7 32-29.7 5.2 0 10.6 1 11.9 1.3v-19.8c-2.2-0.1-7.4-0.3-10.2-0.3-15.2 0-28.4 8.6-33 21.1h-1.3v-19.1h-18.8z"/>
</svg>